Coordinates
version=1
nRows=4
nColumns=114
inDegrees=yes

Units are S.I. units (second, meters, Newtons, ...)
If the header above contains a line with 'inDegrees', this indicates whether rotational values are in degrees (yes) or radians (no).

endheader 
time	pelvis_tilt	pelvis_list	pelvis_rotation	pelvis_tx	pelvis_ty	pelvis_tz	hip_flexion_l	hip_adduction_l	hip_rotation_l	hip_flexion_r	hip_adduction_r	hip_rotation_r	knee_angle_l	knee_angle_r	ankle_angle_l	ankle_angle_r	subtalar_angle_l	subtalar_angle_r	mtp_angle_l	mtp_angle_r	lumbar_extension	lumbar_bending	lumbar_rotation	arm_flex_l	arm_add_l	arm_rot_l	arm_flex_r	arm_add_r	arm_rot_r	elbow_flex_l	elbow_flex_r	pro_sup_l	pro_sup_r	addbrev_l/activation	addlong_l/activation	addmagDist_l/activation	addmagIsch_l/activation	addmagMid_l/activation	addmagProx_l/activation	bflh_l/activation	bfsh_l/activation	edl_l/activation	ehl_l/activation	fdl_l/activation	fhl_l/activation	gaslat_l/activation	gasmed_l/activation	glmax1_l/activation	glmax2_l/activation	glmax3_l/activation	glmed1_l/activation	glmed2_l/activation	glmed3_l/activation	glmin1_l/activation	glmin2_l/activation	glmin3_l/activation	grac_l/activation	iliacus_l/activation	perbrev_l/activation	perlong_l/activation	piri_l/activation	psoas_l/activation	recfem_l/activation	sart_l/activation	semimem_l/activation	semiten_l/activation	soleus_l/activation	tfl_l/activation	tibant_l/activation	tibpost_l/activation	vasint_l/activation	vaslat_l/activation	vasmed_l/activation	addbrev_r/activation	addlong_r/activation	addmagDist_r/activation	addmagIsch_r/activation	addmagMid_r/activation	addmagProx_r/activation	bflh_r/activation	bfsh_r/activation	edl_r/activation	ehl_r/activation	fdl_r/activation	fhl_r/activation	gaslat_r/activation	gasmed_r/activation	glmax1_r/activation	glmax2_r/activation	glmax3_r/activation	glmed1_r/activation	glmed2_r/activation	glmed3_r/activation	glmin1_r/activation	glmin2_r/activation	glmin3_r/activation	grac_r/activation	iliacus_r/activation	perbrev_r/activation	perlong_r/activation	piri_r/activation	psoas_r/activation	recfem_r/activation	sart_r/activation	semimem_r/activation	semiten_r/activation	soleus_r/activation	tfl_r/activation	tibant_r/activation	tibpost_r/activation	vasint_r/activation	vaslat_r/activation	vasmed_r/activation	
          3.10000000	          7.36301100	         15.81216845	        -35.23155236	          1.76360321	          0.78826555	          0.48934319	         47.27680992	          7.62589645	        -16.62381081	        -22.21275303	        -31.00534508	          1.95525155	         63.97420773	         49.20000487	         18.85778083	         -9.42388251	         -8.54620120	         -7.47159505	        -10.23893970	         -6.40995842	         -4.43141792	        -28.85285882	          8.47552223	          9.03999594	        -29.86138043	         44.94860586	         -3.97417502	         -7.21406828	         12.85177073	         31.84728044	         38.39165920	         70.86101201	         72.47982652	          0.01089901	          0.01145004	          0.01413541	          0.06267216	          0.01123643	          0.01274041	          0.01431799	          0.01358736	          0.01855531	          0.01937289	          0.02264696	          0.03275041	          0.01112254	          0.01049488	          0.14088565	          0.27860232	          0.01926418	          0.34996361	          0.15206059	          0.10131769	          0.12381317	          0.10657956	          0.06481964	          0.01199882	          0.01525089	          0.01390668	          0.02806520	          0.11044983	          0.01073002	          0.15578398	          0.02242665	          0.04798041	          0.01661447	          0.16787871	          0.09463442	          0.02825805	          0.05147292	          0.12821581	          0.38723295	          0.17462950	          0.01631589	          0.02069867	          0.01066114	          0.01072804	          0.01075739	          0.01093873	          0.01029821	          0.02420227	          0.05609377	          0.02472577	          0.01280266	          0.01161624	          0.01296069	          0.01753388	          0.01062435	          0.01028866	          0.01019333	          0.02603675	          0.01167736	          0.01065912	          0.02074759	          0.01104899	          0.01440512	          0.01128491	          0.07974949	          0.04571248	          0.06580050	          0.01214004	          0.03329780	          0.11115803	          0.05046020	          0.01071516	          0.01055012	          0.01387141	          0.01437109	          0.03560123	          0.01081239	          0.02582127	          0.04161092	          0.02854212	
          3.11000000	          7.11613554	         16.07099253	        -35.30496671	          1.76690179	          0.78515275	          0.48892552	         47.86885811	          7.65651648	        -16.81933123	        -21.68878371	        -31.10774942	          2.49296041	         64.67297322	         49.69402973	         19.62616614	         -9.70698672	         -8.52682605	         -8.12959721	         -9.89642529	         -6.01228497	         -4.46461243	        -29.04734455	          8.74004153	          9.85226781	        -29.72994090	         44.09757542	         -3.99718806	         -7.22608541	         11.95895729	         32.01995033	         38.91054942	         73.24678803	         74.74507602	          0.01108343	          0.01170745	          0.02552307	          0.10121221	          0.01226143	          0.01280285	          0.03174474	          0.01352280	          0.01952480	          0.01707447	          0.01951115	          0.02771109	          0.01302809	          0.01491655	          0.22419870	          0.39363253	          0.07485484	          0.42813326	          0.19990286	          0.11686458	          0.16499410	          0.13029471	          0.06842286	          0.01324745	          0.01291303	          0.02645778	          0.02613606	          0.09997218	          0.01040976	          0.12995529	          0.01882376	          0.04463741	          0.02833273	          0.18952947	          0.09397641	          0.02364176	          0.04311215	          0.14037139	          0.45627796	          0.19985271	          0.01504966	          0.01794834	          0.01075987	          0.01077775	          0.01101574	          0.01101472	          0.01023773	          0.02141206	          0.04800067	          0.02285780	          0.01191367	          0.01071615	          0.01164589	          0.01473045	          0.01034934	          0.01016926	          0.01015006	          0.02417388	          0.01087546	          0.01037682	          0.01894694	          0.01067915	          0.01390923	          0.01125960	          0.10032032	          0.04010784	          0.05502940	          0.01157426	          0.03061016	          0.14068106	          0.04907713	          0.01057329	          0.01046490	          0.01167607	          0.01272509	          0.02989906	          0.01021371	          0.02828369	          0.05351255	          0.03235339	
          3.12000000	          6.92408431	         16.33503442	        -35.43551756	          1.77015363	          0.78195462	          0.48862855	         48.36956317	          7.70563835	        -17.05016017	        -21.25368078	        -31.27254869	          2.94506538	         65.28851521	         50.05025322	         20.33171530	        -10.01908649	         -8.55488042	         -8.76148240	         -9.70673118	         -5.63613814	         -4.48247331	        -29.28141445	          9.05443064	         10.62015015	        -29.61927494	         43.29539466	         -3.98882149	         -7.27800435	         11.30387569	         32.36189123	         39.38102530	         75.03735887	         76.49200498	          0.01073037	          0.01122642	          0.02168849	          0.08457808	          0.01141549	          0.01242841	          0.02660455	          0.01291723	          0.01706841	          0.01675887	          0.01830338	          0.06056241	          0.01218695	          0.01262412	          0.24670881	          0.42401360	          0.06268740	          0.44432031	          0.22222342	          0.15184746	          0.17501181	          0.15212279	          0.08814187	          0.01217418	          0.01118588	          0.02215834	          0.02182106	          0.11973053	          0.01036411	          0.13642931	          0.01588290	          0.03725281	          0.02390336	          0.19495184	          0.10341198	          0.02000629	          0.15492108	          0.18893587	          0.53959392	          0.25703860	          0.01404662	          0.01583801	          0.01053225	          0.01048675	          0.01078077	          0.01092589	          0.01017256	          0.01971007	          0.04029764	          0.02301598	          0.01915544	          0.01437384	          0.01201113	          0.01280637	          0.01031500	          0.01014701	          0.01012451	          0.02545930	          0.01089472	          0.01038755	          0.02217729	          0.01077291	          0.01421289	          0.01111343	          0.08571386	          0.03367078	          0.04598530	          0.01154601	          0.02991711	          0.12333762	          0.05959123	          0.01035845	          0.01033424	          0.01060568	          0.02173779	          0.03723112	          0.01346322	          0.03130749	          0.06627068	          0.03720579	
          3.13000000	          6.79522093	         16.60455996	        -35.60913613	          1.77347260	          0.77881141	          0.48851248	         48.77277739	          7.78462388	        -17.31184461	        -20.97549442	        -31.50191624	          3.26983933	         65.83167257	         50.21043245	         21.01710844	        -10.33666575	         -8.60207452	         -9.30057127	         -9.61884926	         -5.28234777	         -4.46459647	        -29.55658892	          9.34990847	         11.20481875	        -29.54560716	         42.61183434	         -3.86214187	         -7.37908564	         11.14776628	         32.83047806	         39.68126877	         75.46211245	         76.97744597	          0.01048333	          0.01084375	          0.01834112	          0.07063203	          0.01071739	          0.01208172	          0.02227787	          0.01238035	          0.01522954	          0.01921446	          0.03705491	          0.08411234	          0.01113018	          0.01074820	          0.24781819	          0.40500895	          0.05242022	          0.41657483	          0.22077975	          0.17438905	          0.15592552	          0.15024180	          0.09283295	          0.01118364	          0.01081914	          0.01854821	          0.01822381	          0.13076035	          0.01038112	          0.15720229	          0.01361027	          0.03108524	          0.02010320	          0.20550475	          0.10674182	          0.02417168	          0.19321997	          0.22851389	          0.61414166	          0.30667527	          0.01274947	          0.01394394	          0.01025520	          0.01023264	          0.01035038	          0.01058060	          0.01010651	          0.01884874	          0.03395537	          0.02318321	          0.02335174	          0.02547624	          0.01277719	          0.01139836	          0.01038955	          0.01015137	          0.01009349	          0.03014708	          0.01403775	          0.01075609	          0.02734063	          0.01192613	          0.01615376	          0.01078176	          0.07172631	          0.02834652	          0.03843258	          0.01224231	          0.02563740	          0.10284582	          0.05089689	          0.01019844	          0.01020481	          0.01086274	          0.02447760	          0.03876054	          0.04008935	          0.03459533	          0.07993864	          0.04264008	
